# xmcd CD database file
#
# Track frame offsets:
#	183
#	10710
#	23210
#	38020
#	52738
#	61653
#	74708
#	90555
#	104658
#	117983
#	130520
#
# Disc length: 1893 seconds
#
# Revision: 0
# Processed by: cddbd v1.5.2PL0 Copyright (c) Steve Scherf et al.
# Submitted via: CDex 1.51
#
DISCID=8607630b
DTITLE=LOUIS ARMSTRONG - WHAT A WONDERFUL WORLD
DYEAR=1900
DGENRE=Jazz
TTITLE0=WHAT A WONDERFUL WORLD
TTITLE1=CABARET
TTITLE2=THE HOME FIRE
TTITLE3=DREAM A LITTLE DREAM OF ME
TTITLE4=GIVE ME YOUR KISSES(I'LL GIVE YOU MY HEART)
TTITLE5=THE SUNSHINE OF LOVE
TTITLE6=HELLO BROTHER
TTITLE7=THERE MUST BE A WAY
TTITLE8=FANTASTIC, THAT'S YOU
TTITLE9=I GUESS I'LL GET THE PAPERS AND GO HOME
TTITLE10=HELLZAPOPPIN'(From Hellzapoppin' 67)
EXTD=
EXTT0=
EXTT1=
EXTT2=
EXTT3=
EXTT4=
EXTT5=
EXTT6=
EXTT7=
EXTT8=
EXTT9=
EXTT10=
PLAYORDER=
